<svg fill="none" viewBox="0 0 220 87" xmlns="http://www.w3.org/2000/svg"><path d="m134.06 31.377h-47.448l-5.189 3.73v39.788l5.931 4.974h46.706l5.931-4.974v-39.788l-5.931-3.73z" fill="#fff"/><path d="m126.09 31.377h-31.247l-3.417 2.86v30.504l3.906 3.813h30.758l3.905-3.813v-30.504l-3.905-2.86z" fill="#161616"/><path d="M160.542 80H207.3L212.288 75.769V58.846L201.6 47.564H170.963V39.808H198.75V46.154H213V30.641L207.3 25H161.7L156 30.641V54.615L161.7 58.846H197.325V66.603H170.963V61.667H156V75.769L160.542 80Z" fill="#D4A45C"/><path d="m14.486 29.591-0.0745-9.27 1.845-4.294-0.9569-2.132 2.842 2.83 0.9512 1.419 0.0114 1.426 0.0115 1.426 0.911-3.573 0.9168-2.86 0.9225-2.146 0.9282-1.434-0.0114-1.426-0.9626-2.845 1.8965 2.124 0.3253 0.711 0.0172 2.139-0.3081 1.429 0.0172 2.139 0.0115 1.426 0.9454 0.706 0.0058 0.713 1.8679-1.442-0.0057-0.713-0.0115-1.426 0.9282-1.433 0.9659-1.435 0.8775-0.72-0.8661 2.147-0.8718 1.433 0.0057 0.713 0.8515 0.706 0.9454 0.706 0.0115 1.426 0.0057 0.713 0.9512 1.419 0.8196 1.42 2.0052-0.73 0.6333-0.718-0.0069-0.847-0.6436-0.574-0.9454-0.705 1.8838 0.542 0.9457 0.727 0.0125 1.56 0.9168-2.86-0.0115-1.426-0.4249-1.423-1.4717-0.701 0.941 0.148 1.414 0.546 0.8949 1.419 0.538 1.422 0.939-7e-3 -0.023-2.853 0.929-1.433 1.868-1.442 0.933-0.72 0.929-1.434-6e-3 -0.713-0.011-1.426-0.952-1.419-1.896-2.124 1.885 0.698 2.842 2.83 0.011 1.426 0.018 2.139 5e-3 0.713 0.012 1.427 6e-3 0.713 0.011 1.426 0.951 1.418 0.946 0.706 0.945 0.706 1.856-2.868-0.011-1.426-0.393-2.136-0.895-1.419 1.773 0.699 1.387 1.883 0.93 2.305c0.029 4e-3 0.056 8e-3 0.08 0.012l1.811-2.095 0.928-1.433-0.011-1.427-0.957-2.131-0.952-1.419-0.945-0.706 2.825 0.691 1.891 1.411 0.951 1.419 0.017 2.139 0.012 1.426v7.447l4.328 6.816-4.197 2.138-5.615 2.898-32.889 0.263-5.6668-3.52z" fill="#fff"/><path d="M58.3 25H12.7L7.7125 29.231V46.154L18.4 57.436H49.037V65.192H21.25V58.846H7V74.359L12.7 80H58.3L64 74.359V50.385L58.3 46.154H22.675V38.397H49.037V43.333H64V29.231L58.3 25Z" fill="#fff"/><path d="m2.8648 62.754h-2.857v12.836h2.857v-12.836z" fill="#fff"/><path d="m25.722 84.148h-14.285v2.8525h14.285v-2.8525z" fill="#fff"/><path d="m2.16 73.412-2.16 2.1819 11.447 11.296 2.16-2.1819-11.447-11.296z" fill="#fff"/><path d="m217.14 41.361h2.857v-12.836h-2.857v12.836z" fill="#fff"/><path d="m194.28 19.967h14.285v-2.8525h-14.285v2.8525z" fill="#fff"/><path d="m217.84 30.703 2.16-2.1819-11.447-11.296-2.16 2.1819 11.447 11.296z" fill="#fff"/><path d="m141.45 43.499-1.113 0.713-10.688-6.18-8.862-3.803-6.724-0.872h-3.964l0.446-33.357h1.336l4.542 0.634 6.234 2.06 3.919 2.139 5.121 4.16 3.162 4.001 2.939 7.21 0.401 3.764 1.737 0.792 1.069 2.1 0.445 3.764 1.069 8.874v2.297l-0.49 0.832-0.579 0.872z" fill="#fff"/><path d="m79.639 43.499 1.113 0.713 0.675-0.631 10.369-5.866 17.768-5.031 0.98 1.584 0.624-0.871-0.624-33.397h-1.336l-4.542 0.634-6.235 2.06-3.918 2.139-5.121 4.16-3.162 4.001-2.939 7.21-0.401 3.764-1.737 0.792-1.069 2.1-0.445 3.764-1.069 8.874v2.297l0.49 0.832 0.579 0.872z" fill="#fff"/><path d="m81.641 44.213-0.668-0.198 0.445-1.07 0.623-1.268 0.446-1.465 0.534-3.209 0.624-2.219 0.623-3.328 0.802-1.98 2.671-1.189 5.968-1.664 6.056-1.188 10.777-0.634v9.627h-3.117l-2.984 0.356-1.959 0.317-3.34 0.911-4.186 1.585-2.316 0.99-3.563 2.1-3.072 1.941-2.36 1.308-1.425 0.277h-0.579z" fill="#161616"/><path d="m139.45 44.213 0.668-0.198-0.445-1.07-0.624-1.268-0.445-1.465-0.534-3.209-0.624-2.219-0.623-3.328-0.802-1.98-2.672-1.189-5.967-1.664-6.056-1.188-10.777-0.634v9.627h3.117l2.984 0.356 1.959 0.317 3.34 0.911 4.186 1.585 2.316 0.99 3.562 2.1 3.073 1.941 2.36 1.308 1.425 0.277h0.579z" fill="#161616"/><g opacity=".9"><path d="m102.94 47.065c2.234 0 4.045-2.2089 4.045-4.9338s-1.811-4.9338-4.045-4.9338-4.0451 2.2089-4.0451 4.9338 1.8111 4.9338 4.0451 4.9338z" fill="#fff"/><path d="m87.543 45.52c1.8013 0 3.2616-2.0708 3.2616-4.6254s-1.4603-4.6255-3.2616-4.6255-3.2616 2.0709-3.2616 4.6255 1.4603 4.6254 3.2616 4.6254z" fill="#fff"/><path d="m98.894 41.667-0.261-0.771v-2.313l1.044-2.004 1.305-1.234 1.957-0.616 2.349 0.154 1.566 0.925 1.304 1.696 0.522 1.387 0.131 2.005-0.131 0.925-0.522 1.542-0.783 1.079-0.521 0.462-0.392 0.463-0.913 0.771-1.044 0.462-0.914 0.463h-0.783l-1.043-0.154-0.914-0.463-0.652-0.616-0.522-0.771-0.392-0.925-0.261-0.771-0.13-0.925v-0.771z" fill="#fff"/><path d="m98.894 41.667-0.261-0.771v-2.313l1.044-2.004 1.305-1.234 1.957-0.616 2.349 0.154 1.566 0.925 1.304 1.696 0.522 1.387 0.131 2.005-0.131 0.925-0.522 1.542-0.783 1.079-0.521 0.462-0.392 0.463-0.913 0.771m-6.655-4.471v0.771l0.13 0.925 0.261 0.771 0.392 0.925 0.522 0.771 0.652 0.616 0.914 0.463 1.043 0.154h0.783l0.914-0.463 1.044-0.462m-6.655-4.471v-0.463l0.13-0.617 0.261-0.925 0.392-0.616 0.783-0.771 0.783-0.617 0.782-0.308 0.914-0.155h0.783l0.913 0.309 0.783 0.617 0.392 0.462 0.652 1.079 0.261 0.771 0.261 0.925v0.771l-0.13 1.08-0.261 1.079-1.044 1.85" stroke="#000"/><path d="m117.96 47.065c-2.234 0-4.045-2.2089-4.045-4.9338s1.811-4.9338 4.045-4.9338 4.045 2.2089 4.045 4.9338-1.811 4.9338-4.045 4.9338z" fill="#fff"/><path d="m133.35 45.521c-1.801 0-3.261-2.0709-3.261-4.6254 0-2.5546 1.46-4.6255 3.261-4.6255 1.802 0 3.262 2.0709 3.262 4.6255 0 2.5545-1.46 4.6254-3.262 4.6254z" fill="#fff"/><path d="m122 41.667 0.261-0.771v-2.313l-1.044-2.004-1.305-1.234-1.957-0.616-2.349 0.154-1.566 0.925-1.305 1.696-0.522 1.387-0.13 2.005 0.13 0.925 0.522 1.542 0.783 1.079 0.522 0.462 0.392 0.463 0.913 0.771 1.044 0.462 0.913 0.463h0.783l1.044-0.154 0.914-0.463 0.652-0.616 0.522-0.771 0.391-0.925 0.261-0.771 0.131-0.925v-0.771z" fill="#fff"/><path d="m122 41.667 0.261-0.771v-2.313l-1.044-2.004-1.305-1.234-1.957-0.616-2.349 0.154-1.566 0.925-1.305 1.696-0.522 1.387-0.13 2.005 0.13 0.925 0.522 1.542 0.783 1.079 0.522 0.462 0.392 0.463 0.913 0.771m6.655-4.471v0.771l-0.131 0.925-0.261 0.771-0.391 0.925-0.522 0.771-0.652 0.616-0.914 0.463-1.044 0.154h-0.783l-0.913-0.463-1.044-0.462m6.655-4.471v-0.463l-0.131-0.617-0.261-0.925-0.391-0.616-0.783-0.771-0.783-0.617-0.783-0.308-0.913-0.155h-0.783l-0.914 0.309-0.783 0.617-0.391 0.462-0.652 1.079-0.261 0.771-0.261 0.925v0.771l0.13 1.08 0.261 1.079 1.044 1.85" stroke="#000"/><path d="m90.153 45.059-1.305 0.462h-1.566l-0.521-0.154-0.653-0.308-0.783-0.617-0.522-0.925-0.391-0.925-0.131-1.234v-1.079l0.131-0.925 0.391-1.234 0.653-0.77 0.391-0.463 1.174-0.925 1.436-0.463 0.391-0.616 1.175-0.771 1.174-0.463h1.566l1.435 0.463 1.305 1.079 1.175 2.004 0.521 1.696v1.696l-0.652 2.005 0.392 0.925 0.521 0.308 1.566 0.154-0.261-1.85v-0.617l-0.261-0.616v-2.313l1.044-2.159 1.436-1.233 1.826-0.617 2.48 0.154 1.566 0.926 1.304 1.696 0.653 1.541 0.13 1.388 0.392-1.388 0.13-1.079-0.13-1.388-0.261-1.079-0.392-0.771-0.783-1.079-0.782-0.617-0.783-0.462-1.044-0.309-0.522 0.155-0.131-0.617v1.233l-9.656-0.154v-1.079l-3.131-0.617v-2.467h8.873l6.915 0.309-0.13-1.388v-0.925l0.13-1.079 0.131-0.771 0.522-0.463h2.218v7.555l-5.872-0.154 0.131 0.617 0.522-0.155 1.044 0.309 0.783 0.462 0.782 0.617 0.783 1.079 0.392 0.771 0.261 1.079 0.13 1.388-0.13 1.079-0.392 1.388-0.13-1.388-0.653-1.541-1.304-1.696-1.566-0.926-2.48-0.154-1.826 0.617-1.436 1.233-1.044 2.159v2.313l0.261 0.616v0.617l0.261 1.85-1.566-0.154-0.521-0.308-0.392-0.925-2.74 1.696-1.697-0.154-1.957 0.925z" fill="#fff"/><path d="m96.547 42.592-2.74 1.696-1.697-0.154-1.957 0.925-1.305 0.462h-0.522m8.221-2.929 0.652-2.005v-1.696l-0.521-1.696-1.175-2.004-1.305-1.079-1.435-0.463h-1.566l-1.174 0.463-1.175 0.771-0.391 0.616-1.436 0.463-1.174 0.925m10.7 5.705 0.392 0.925 0.521 0.308 1.566 0.154-0.261-1.85v-0.617l-0.261-0.616v-2.313l1.044-2.159 1.436-1.233 1.826-0.617 2.48 0.154 1.566 0.926 1.304 1.696 0.653 1.541 0.13 1.388 0.392-1.388 0.13-1.079-0.13-1.388-0.261-1.079-0.392-0.771-0.783-1.079-0.782-0.617-0.783-0.462-1.044-0.309-0.522 0.155-0.131-0.617m-16.311 13.876 0.392-0.308 0.652-0.463 0.522-0.616 0.522-1.08 0.261-1.233 0.131-1.234-0.131-0.771-0.391-1.233-0.783-1.233-0.783-0.771-0.522-0.155h-1.175l-0.521 0.155-0.653 0.308m2.479 8.634h-1.044l-0.521-0.154-0.653-0.308-0.783-0.617-0.522-0.925-0.391-0.925-0.131-1.234v-1.079l0.131-0.925 0.391-1.234m1.044-1.233-1.044 1.233m1.044-1.233-0.391 0.463-0.653 0.77m19.834-6.475 5.872 0.154v-1.233m-5.872 1.079v1.233l-9.656-0.154v-1.079l-3.131-0.617v-2.467h8.873l6.915 0.309-0.13-1.388v-0.925l0.13-1.079 0.131-0.771 0.522-0.463h2.218v1.542m0 4.78-0.913-0.155-0.914-0.616-0.783-1.234v-0.925l0.653-1.233 0.913-0.463 1.044-0.154m0 4.78v-4.78" stroke="#000"/><path d="m130.74 45.059 1.305 0.462h1.566l0.522-0.154 0.653-0.308 0.782-0.617 0.522-0.925 0.392-0.925 0.13-1.234v-1.079l-0.13-0.925-0.392-1.234-0.652-0.77-0.391-0.463-1.175-0.925-1.435-0.463-0.392-0.616-1.174-0.771-1.174-0.463h-1.566l-1.436 0.463-1.305 1.079-1.174 2.004-0.522 1.696v1.696l0.653 2.005-0.392 0.925-0.522 0.308-1.566 0.154 0.261-1.85v-0.617l0.261-0.616v-2.313l-1.044-2.159-1.435-1.233-1.827-0.617-2.479 0.154-1.566 0.926-1.305 1.696-0.652 1.541-0.131 1.388-0.391-1.388-0.131-1.079 0.131-1.388 0.261-1.079 0.391-0.771 0.783-1.079 0.783-0.617 0.783-0.462 1.044-0.309 0.522 0.155 0.13-0.617v1.233l9.656-0.154v-1.079l3.132-0.617v-2.467h-8.873l-6.916 0.309 0.131-1.388v-0.925l-0.131-1.079-0.13-0.771-0.522-0.463h-2.219v7.555l5.872-0.154-0.13 0.617-0.522-0.155-1.044 0.309-0.783 0.462-0.783 0.617-0.783 1.079-0.391 0.771-0.261 1.079-0.131 1.388 0.131 1.079 0.391 1.388 0.131-1.388 0.652-1.541 1.305-1.696 1.566-0.926 2.479-0.154 1.827 0.617 1.435 1.233 1.044 2.159v2.313l-0.261 0.616v0.617l-0.261 1.85 1.566-0.154 0.522-0.308 0.392-0.925 2.74 1.696 1.696-0.154 1.957 0.925z" fill="#fff"/><path d="m124.34 42.592 2.74 1.696 1.696-0.154 1.957 0.925 1.305 0.462h0.522m-8.22-2.929-0.653-2.005v-1.696l0.522-1.696 1.174-2.004 1.305-1.079 1.436-0.463h1.566l1.174 0.463 1.174 0.771 0.392 0.616 1.435 0.463 1.175 0.925m-10.7 5.705-0.392 0.925-0.522 0.308-1.566 0.154 0.261-1.85v-0.617l0.261-0.616v-2.313l-1.044-2.159-1.435-1.233-1.827-0.617-2.479 0.154-1.566 0.926-1.305 1.696-0.652 1.541-0.131 1.388-0.391-1.388-0.131-1.079 0.131-1.388 0.261-1.079 0.391-0.771 0.783-1.079 0.783-0.617 0.783-0.462 1.044-0.309 0.522 0.155 0.13-0.617m16.311 13.876-0.391-0.308-0.653-0.463-0.522-0.616-0.522-1.08-0.261-1.233-0.13-1.234 0.13-0.771 0.392-1.233 0.783-1.233 0.783-0.771 0.522-0.155h1.174l0.522 0.155 0.653 0.308m-2.48 8.634h1.044l0.522-0.154 0.653-0.308 0.782-0.617 0.522-0.925 0.392-0.925 0.13-1.234v-1.079l-0.13-0.925-0.392-1.234m-1.043-1.233 1.043 1.233m-1.043-1.233 0.391 0.463 0.652 0.77m-19.834-6.475-5.872 0.154v-1.233m5.872 1.079v1.233l9.656-0.154v-1.079l3.132-0.617v-2.467h-8.873l-6.916 0.309 0.131-1.388v-0.925l-0.131-1.079-0.13-0.771-0.522-0.463h-2.219v1.542m0 4.78 0.914-0.155 0.913-0.616 0.783-1.234v-0.925l-0.652-1.233-0.914-0.463-1.044-0.154m0 4.78v-4.78" stroke="#000"/><path d="m87.543 45.52c1.8013 0 3.2616-2.0019 3.2616-4.4713s-1.4603-4.4713-3.2616-4.4713-3.2616 2.0019-3.2616 4.4713 1.4603 4.4713 3.2616 4.4713z" fill="#D4A45C"/><path d="m102.94 47.063c2.234 0 4.045-2.2089 4.045-4.9338s-1.811-4.9338-4.045-4.9338-4.0451 2.2089-4.0451 4.9338 1.8111 4.9338 4.0451 4.9338z" fill="#D4A45C"/><path d="m117.96 47.062c2.162 0 3.915-2.1399 3.915-4.7796s-1.753-4.7796-3.915-4.7796-3.915 2.1399-3.915 4.7796 1.753 4.7796 3.915 4.7796z" fill="#D4A45C"/><path d="m133.48 45.52c1.657 0 3.001-2.0019 3.001-4.4713s-1.344-4.4713-3.001-4.4713-3.001 2.0019-3.001 4.4713 1.344 4.4713 3.001 4.4713z" fill="#D4A45C"/></g></svg>